<?xml version="1.0" standalone="no"?>
<!DOCTYPE svg PUBLIC "-//W3C//DTD SVG 1.1//EN" "http://www.w3.org/Graphics/SVG/1.1/DTD/svg11.dtd" >
<svg xmlns="http://www.w3.org/2000/svg" xmlns:xlink="http://www.w3.org/1999/xlink" version="1.1">
<metadata></metadata>
<defs>
<font id="lg_smartbold_italic" horiz-adv-x="1064" >
<font-face units-per-em="2048" ascent="1466" descent="-582" />
<missing-glyph horiz-adv-x="442" />
<glyph unicode="&#xfb01;" horiz-adv-x="1056" d="M-272 -403l61 180q20 -6 43 -10.5t45 -4.5q168 0 199 152l157 772h-147l37 180h143l21 101q20 100 64 167.5t109.5 107.5t152.5 56.5t194 16.5q86 0 179 -9.5t157 -27.5l-51 -231h-256l26 102q-25 4 -47 4h-39q-61 0 -104 -17.5t-72 -44t-44 -61.5t-21 -67l-19 -97h535 l-185 -866h-250l148 686h-283l-162 -758q-20 -98 -62 -164.5t-100.5 -107.5t-130 -58.5t-151.5 -17.5q-76 0 -147 17z" />
<glyph unicode="&#xfb02;" horiz-adv-x="1097" d="M-272 -403l61 180q20 -6 43 -10.5t45 -4.5q168 0 199 152l157 772h-147l37 180h147l21 101q20 100 66 167.5t115 107.5t158 56.5t197 16.5q86 0 169 -10.5t167 -28.5l-209 -981q-12 -53 -12 -76q0 -29 18.5 -40t65.5 -13l-37 -172q-10 -2 -20 -2q-10 -2 -22.5 -2h-22.5 q-121 0 -177.5 45t-56.5 141q0 47 12 103l183 862q-27 4 -49.5 6t-38.5 2q-123 0 -181.5 -52.5t-72.5 -119.5l-23 -111h201l-39 -180h-201l-162 -758q-20 -98 -62 -164.5t-100.5 -107.5t-130 -58.5t-151.5 -17.5q-76 0 -147 17z" />
<glyph horiz-adv-x="0" />
<glyph unicode="&#xd;" horiz-adv-x="409" />
<glyph horiz-adv-x="0" />
<glyph horiz-adv-x="0" />
<glyph unicode=" "  horiz-adv-x="442" />
<glyph unicode="&#x09;" horiz-adv-x="442" />
<glyph unicode="&#xa0;" horiz-adv-x="442" />
<glyph unicode="!" horiz-adv-x="501" d="M37 0l49 236h252l-51 -236h-250zM137 358l148 887h282l-231 -887h-199z" />
<glyph unicode="&#x22;" horiz-adv-x="897" d="M238 778l81 520h232l-141 -520h-172zM607 778l81 520h232l-141 -520h-172z" />
<glyph unicode="#" horiz-adv-x="997" d="M82 250l35 168h133l37 170h-133l34 168h136l24 116h176l-24 -116h143l25 116h176l-25 -116h133l-34 -168h-136l-37 -170h136l-35 -168h-135l-25 -117h-176l25 117h-144l-24 -117h-177l25 117h-133zM426 418h143l37 170h-143z" />
<glyph unicode="$" horiz-adv-x="995" d="M16 66l109 184q66 -31 141.5 -47.5t143.5 -16.5q53 0 102 9.5t86 29t59.5 50t22.5 71.5q0 45 -24.5 71.5t-41.5 35.5q-66 35 -135 62.5t-141 62.5q-82 41 -131 108.5t-49 157.5q0 104 37.5 184t108.5 132t168 79t218 27q94 0 186.5 -17.5t170.5 -58.5l-103 -182 q-51 23 -117.5 40t-152.5 17q-104 0 -178 -38t-74 -122q0 -49 28.5 -77.5t57.5 -43.5q53 -27 127 -55.5t137 -62.5q68 -37 117 -102.5t49 -164.5q0 -104 -40 -183t-111.5 -131t-170 -78.5t-217.5 -26.5q-100 0 -195 20t-188 66zM317 -168l338 1593h138l-340 -1593h-136z" />
<glyph unicode="%" horiz-adv-x="1267" d="M-20 -61l1171 1368h215l-1171 -1368h-215zM84 838q0 82 19.5 159.5t61.5 137t107.5 95.5t157.5 36q104 0 154.5 -66.5t50.5 -175.5q0 -86 -21.5 -163t-64.5 -135t-106.5 -93t-149.5 -35q-109 0 -159 67.5t-50 172.5zM254 846q0 -53 15.5 -82t49.5 -29q25 0 50.5 14.5 t47 48t35 89t13.5 135.5q0 51 -14.5 79.5t-47.5 28.5q-25 0 -51 -15t-47.5 -49t-36 -88t-14.5 -132zM721 219q0 82 19.5 159t61.5 137t107.5 96t157.5 36q104 0 154.5 -67.5t50.5 -176.5q0 -86 -21.5 -162.5t-64.5 -135t-106.5 -92t-149.5 -33.5q-109 0 -159 66.5t-50 172.5 zM891 225q0 -51 15 -79.5t50 -28.5q25 0 50.5 14t47 48t35 89.5t13.5 134.5q0 49 -14.5 79t-47.5 30q-25 0 -51 -15.5t-47.5 -49t-36 -88t-14.5 -134.5z" />
<glyph unicode="&#x26;" horiz-adv-x="1138" d="M14 274q0 145 79 241.5t253 168.5q-25 53 -42 110.5t-17 110.5q0 164 107.5 262.5t301.5 98.5q72 0 130.5 -21.5t100.5 -58.5t65.5 -86t23.5 -105q0 -78 -30 -136t-79 -104t-114.5 -81t-137.5 -64l127 -200q51 66 91 134t69 134l203 -51q-66 -113 -128.5 -209 t-127.5 -174l155 -244h-266l-57 88q-78 -53 -167 -80.5t-200 -27.5q-74 0 -136 21.5t-107 59t-71 91.5t-26 122zM272 322q0 -66 42.5 -103t103.5 -37q102 0 198 68l-176 274q-82 -41 -125 -89t-43 -113zM518 911q0 -37 12.5 -74.5t30.5 -74.5q47 16 87 33.5t70 42t46 57.5 t16 78q0 43 -32.5 71.5t-73.5 28.5q-72 0 -114 -43t-42 -119z" />
<glyph unicode="'" horiz-adv-x="528" d="M238 778l81 520h232l-141 -520h-172z" />
<glyph unicode="(" horiz-adv-x="671" d="M90 301q0 334 147.5 598t436.5 469l106 -141q-219 -164 -338.5 -409t-119.5 -527q0 -145 32.5 -284.5t110.5 -274.5l-154 -109q-113 145 -167 316.5t-54 361.5z" />
<glyph unicode=")" horiz-adv-x="669" d="M-78 -236q219 164 339 409t120 527q0 145 -33 283.5t-110 276.5l153 108q113 -145 167 -316.5t54 -361.5q0 -334 -147.5 -598t-435.5 -469z" />
<glyph unicode="*" horiz-adv-x="860" d="M127 850l129 252l205 -121l14 262h260l-98 -262l258 121l23 -252l-269 -41l158 -197l-250 -145l-68 233l-165 -233l-189 145l236 197z" />
<glyph unicode="+" d="M121 401l43 199h297l65 309h211l-67 -309h301l-41 -199h-301l-66 -307h-209l64 307h-297z" />
<glyph unicode="," horiz-adv-x="483" d="M-98 -207q49 57 79.5 110.5t52 105.5t35 106.5t25.5 115.5h225q-20 -94 -46.5 -168.5t-62.5 -138t-81 -119t-100 -110.5z" />
<glyph unicode="-" horiz-adv-x="671" d="M70 338l45 211h499l-45 -211h-499z" />
<glyph unicode="." horiz-adv-x="483" d="M16 0l50 236h251l-51 -236h-250z" />
<glyph unicode="/" horiz-adv-x="716" d="M-104 -61l776 1368h237l-776 -1368h-237z" />
<glyph unicode="0" d="M76 397q0 88 13 186.5t43 194.5t77 184.5t114.5 155t158.5 106.5t206 40q76 0 141.5 -25t114.5 -77t78 -131t29 -187q0 -88 -13.5 -186.5t-43 -194.5t-77 -184.5t-115 -155t-158.5 -106.5t-206 -40q-76 0 -141.5 25t-114.5 77t-77.5 131t-28.5 187zM313 410 q0 -39 6.5 -81t23.5 -78t48 -59.5t80 -23.5q63 0 113.5 34t88.5 90t63.5 126.5t43 144.5t24.5 144.5t7 123.5q0 39 -6 81t-23.5 78t-48.5 59.5t-80 23.5q-63 0 -113.5 -33.5t-88 -90t-63.5 -127t-43 -144.5t-24.5 -144.5t-7.5 -123.5z" />
<glyph unicode="1" d="M266 1038l467 207h172l-266 -1245h-254l215 1006l-272 -119z" />
<glyph unicode="2" d="M-2 0l29 133l551 461q98 82 153 149.5t55 155.5q0 45 -18 78t-46 53.5t-61.5 30.5t-64.5 10q-100 0 -180 -24.5t-144 -65.5l-51 168q96 53 209 85t252 32q82 0 152.5 -18.5t122 -56.5t80 -95.5t28.5 -134.5q0 -80 -27.5 -146.5t-73.5 -125t-104.5 -111t-120.5 -103.5 l-340 -278h543l-41 -197h-903z" />
<glyph unicode="3" d="M-10 131l139 148q47 -45 129 -75t174 -30q61 0 112.5 12.5t90.5 37t60.5 62.5t21.5 89q0 78 -67.5 128t-196.5 50q-27 0 -56.5 -3t-60.5 -7l39 198h86q45 0 101 7.5t105.5 28t82 58t32.5 99.5q0 70 -56 101.5t-132 31.5q-86 0 -155.5 -22.5t-121.5 -55.5l-77 160 q72 47 180 82t237 35q84 0 157 -18.5t127 -54.5t86 -90t32 -126q0 -61 -22.5 -112.5t-59.5 -89.5t-85 -64.5t-99 -40.5q86 -31 139 -93.5t53 -156.5q0 -111 -43 -194t-120 -137t-182 -81.5t-228 -27.5q-141 0 -250 39.5t-172 111.5z" />
<glyph unicode="4" d="M6 258l31 141l616 846h387l-170 -803h160l-39 -184h-160l-55 -258h-254l56 258h-572zM303 442h313l129 607h-16z" />
<glyph unicode="5" d="M20 137l154 144q41 -43 113.5 -73t158.5 -30q125 0 199 57.5t74 174.5q0 53 -22.5 91t-61.5 61.5t-93.5 34.5t-117.5 11h-231l143 637h731l-39 -188h-483l-58 -264h33q98 0 183 -19.5t147.5 -60.5t99.5 -105.5t37 -154.5q0 -119 -39 -208t-111.5 -147.5t-175 -88 t-229.5 -29.5q-135 0 -245.5 43t-166.5 114z" />
<glyph unicode="6" d="M77 360q0 164 45 325t137.5 290t235.5 208.5t340 79.5q84 0 152.5 -14t124.5 -39l-93 -176q-41 18 -96 27.5t-108 9.5q-82 0 -149.5 -24.5t-120 -68.5t-91.5 -105.5t-65 -133.5q59 31 127.5 47.5t128.5 16.5q86 0 150.5 -23.5t108.5 -65.5t66.5 -100.5t22.5 -128.5 q0 -111 -39 -204t-110.5 -160.5t-171 -105.5t-220.5 -38q-182 0 -278.5 99.5t-96.5 283.5zM329 364q0 -41 8.5 -77.5t26.5 -64.5t49 -44t74 -16q57 0 105.5 22.5t83 62.5t54 92t19.5 109q0 72 -45 114t-127 42q-57 0 -117.5 -15.5t-117.5 -50.5q-12 -86 -13 -174z" />
<glyph unicode="7" d="M174 0l645 1053h-629l41 192h918l-29 -129l-680 -1116h-266z" />
<glyph unicode="8" d="M29 289q0 76 27.5 136t71.5 104t99.5 74t108.5 46q-66 41 -104.5 99.5t-38.5 144.5q0 84 37.5 152.5t105 117.5t163 76t210.5 27q180 0 278 -76t98 -205q0 -68 -22.5 -123t-57 -96t-80.5 -70.5t-91 -46.5q76 -41 118.5 -100.5t42.5 -157.5q0 -102 -40 -179t-112.5 -128 t-176 -77.5t-230.5 -26.5q-193 0 -300 81.5t-107 227.5zM309 313q0 -72 41 -110.5t125 -38.5q113 0 177.5 63.5t64.5 161.5q0 72 -42 113t-120 41q-115 0 -180.5 -62.5t-65.5 -167.5zM455 879q0 -66 36.5 -105t110.5 -39q96 0 152.5 51.5t56.5 141.5q0 63 -30.5 108 t-110.5 45q-96 -2 -155.5 -56t-59.5 -146z" />
<glyph unicode="9" d="M18 33l93 176q41 -18 96 -27.5t108 -9.5q82 0 149.5 24.5t120 68.5t91.5 105.5t65 133.5q-59 -31 -127.5 -47.5t-128.5 -16.5q-86 0 -150.5 23.5t-108.5 65.5t-66.5 100.5t-22.5 128.5q0 111 39 204t110.5 160.5t171 105.5t220.5 38q182 0 278.5 -99.5t96.5 -283.5 q0 -164 -45 -325t-137.5 -290t-235.5 -208.5t-340 -79.5q-84 0 -152.5 14t-124.5 39zM381 795q0 -72 45 -114t127 -42q57 0 117.5 15.5t117.5 50.5q12 86 13 174q0 41 -8.5 77.5t-26.5 64.5t-49 44t-74 16q-57 0 -105.5 -22.5t-83 -62.5t-54 -92t-19.5 -109z" />
<glyph unicode=":" horiz-adv-x="483" d="M16 0l50 236h251l-51 -236h-250zM147 631l50 236h251l-51 -236h-250z" />
<glyph unicode=";" horiz-adv-x="483" d="M-88 -207q49 57 79.5 110.5t52 105.5t35 106.5t25.5 115.5h225q-20 -94 -46.5 -168.5t-62.5 -138t-81 -119t-100 -110.5zM159 631l50 236h251l-51 -236h-250z" />
<glyph unicode="&#x3c;" d="M184 502l623 524l129 -143l-465 -394l285 -376l-172 -136z" />
<glyph unicode="=" d="M84 252l41 194h819l-41 -194h-819zM150 557l40 195h820l-41 -195h-819z" />
<glyph unicode="&#x3e;" d="M149 121l465 394l-285 376l172 136l400 -525l-623 -524z" />
<glyph unicode="?" horiz-adv-x="845" d="M135 0l49 236h252l-51 -236h-250zM201 1190q76 35 164 55.5t186 20.5q70 0 133.5 -16.5t111.5 -48.5t76.5 -79t28.5 -110q0 -68 -28.5 -120t-73.5 -96t-98.5 -84t-101.5 -82t-86 -90t-50 -110l-14 -70h-228l25 119q20 102 80.5 171t125 121t114.5 95t50 97q0 57 -46 79.5 t-105 22.5q-66 0 -128.5 -15.5t-111.5 -39.5z" />
<glyph unicode="@" horiz-adv-x="1912" d="M76 270q0 246 71.5 432.5t203.5 311.5t318.5 188.5t415.5 63.5q184 0 326.5 -38t240 -120t147.5 -213t50 -317q0 -119 -30.5 -225.5t-93 -187.5t-156.5 -128t-221 -47q-86 0 -149.5 30.5t-100.5 94.5q-53 -59 -129 -97t-187 -38q-152 0 -224.5 89t-72.5 234 q0 289 149.5 436.5t432.5 147.5q39 0 82 -3t85 -10.5t81 -18.5t67 -26l-94 -475q-4 -16 -6 -35.5t-2 -35.5q0 -39 19.5 -70t66.5 -31q63 0 110.5 31t78 84t46 126t15.5 159q0 143 -34 238t-101.5 151.5t-169 80t-238.5 23.5q-371 0 -567.5 -203.5t-196.5 -601.5 q0 -143 34 -240.5t100.5 -157.5t161.5 -87t218 -27q96 0 175 11.5t176 37.5l53 -180q-92 -29 -193.5 -46t-214.5 -17q-356 0 -549.5 170t-193.5 536zM735 332q0 -90 32 -132t79 -42q49 0 97 26.5t87 85.5l94 443q-16 4 -31.5 4h-31.5q-172 0 -249 -102.5t-77 -282.5z" />
<glyph unicode="A" horiz-adv-x="1202" d="M-86 0l676 1245h336l178 -1245h-275l-36 322h-443l-164 -322h-272zM455 524h317l-47 525h-16z" />
<glyph unicode="B" horiz-adv-x="1097" d="M18 0l265 1245h424q84 0 158.5 -11t131 -41t89 -81t32.5 -129q0 -121 -74.5 -206t-185.5 -118q74 -27 129 -87t55 -146q0 -109 -39.5 -188.5t-111.5 -132t-172.5 -79t-220.5 -26.5h-480zM307 199h189q49 0 99 10t89 35.5t63.5 67.5t24.5 108q0 61 -49 97t-125 36h-215z M422 743h205q43 0 83 10.5t70.5 33t49 55t18.5 80.5q0 61 -44 93t-110 32h-207z" />
<glyph unicode="C" horiz-adv-x="1095" d="M86 489q0 152 44 292.5t132 248t219 172t307 64.5q117 0 219.5 -34t180.5 -114l-152 -147q-49 47 -113.5 71.5t-150.5 24.5q-113 0 -193.5 -48t-133 -128t-78 -182.5t-25.5 -208.5q0 -70 18.5 -128.5t58.5 -101.5t105.5 -66.5t159.5 -23.5q76 0 134.5 14.5t123.5 38.5 l19 -192q-57 -27 -145.5 -44t-186.5 -17q-123 0 -222.5 31.5t-171 95t-110.5 159.5t-39 223z" />
<glyph unicode="D" horiz-adv-x="1226" d="M18 0l265 1245h372q135 0 239.5 -34.5t175.5 -98t106.5 -153t35.5 -199.5q0 -195 -59 -338t-167.5 -237.5t-259.5 -139.5t-333 -45h-375zM309 195h117q119 0 215 35.5t164.5 105.5t105.5 169t37 226q0 150 -86 234t-241 84h-132z" />
<glyph unicode="E" horiz-adv-x="1007" d="M18 0l265 1245h788l-43 -201h-532l-66 -305h516l-41 -196h-516l-74 -342h555l-43 -201h-809z" />
<glyph unicode="F" horiz-adv-x="964" d="M18 0l265 1245h772l-43 -201h-516l-66 -305h479l-43 -196h-477l-117 -543h-254z" />
<glyph unicode="G" horiz-adv-x="1218" d="M86 489q0 180 54.5 324.5t149.5 245t227 154t286 53.5q131 0 252 -34t200 -108l-141 -155q-47 41 -127 69.5t-184 28.5q-115 0 -201 -40t-144.5 -112.5t-88 -175t-29.5 -225.5q0 -158 90 -250t279 -92q27 0 53 2t55 8l64 301h-246l41 195h495l-139 -645q-92 -29 -180 -41 t-190 -12q-127 0 -232.5 31.5t-181.5 95t-119 158.5t-43 224z" />
<glyph unicode="H" horiz-adv-x="1226" d="M18 0l265 1245h256l-113 -520h487l111 520h254l-264 -1245h-254l110 522h-487l-111 -522h-254z" />
<glyph unicode="I" horiz-adv-x="487" d="M18 0l265 1245h256l-267 -1245h-254z" />
<glyph unicode="J" horiz-adv-x="669" d="M-61 10l43 191q59 -16 116 -17q78 0 125 38t68 130l188 893h256l-200 -940q-18 -90 -53.5 -151.5t-86.5 -98.5t-119.5 -53t-156.5 -16q-39 0 -88 5t-92 19z" />
<glyph unicode="K" horiz-adv-x="1091" d="M18 0l265 1245h256l-113 -524h88l479 524h295l-588 -631l330 -614h-289l-268 524h-88l-113 -524h-254z" />
<glyph unicode="L" horiz-adv-x="876" d="M18 0l265 1245h256l-224 -1044h490l-43 -201h-744z" />
<glyph unicode="M" horiz-adv-x="1552" d="M18 0l265 1245h442v-1048h14l430 1048h435l-265 -1245h-254l224 1049h-17l-442 -1049h-338v1049h-16l-224 -1049h-254z" />
<glyph unicode="N" horiz-adv-x="1325" d="M18 0l265 1245h440l164 -1048h14l223 1048h256l-266 -1245h-438l-164 1049h-16l-224 -1049h-254z" />
<glyph unicode="O" horiz-adv-x="1282" d="M86 449q0 186 50 337.5t142.5 258t223.5 164t295 57.5q231 0 351 -119t120 -350q0 -188 -50.5 -340t-143.5 -258.5t-224 -162.5t-293 -56q-231 0 -351 117.5t-120 351.5zM352 463q0 -141 61.5 -215t172.5 -74q82 0 156.5 42t132 122t90 193.5t32.5 254.5q0 143 -61 216 t-172 73q-84 0 -158 -43t-131 -122t-90 -192.5t-33 -254.5z" />
<glyph unicode="P" horiz-adv-x="1052" d="M18 0l265 1245h395q207 0 318.5 -79t111.5 -251q0 -121 -44 -209t-120 -145t-176 -84.5t-213 -27.5h-188l-97 -449h-252zM408 645h165q51 0 99.5 14.5t85.5 44t59.5 75.5t22.5 108q0 45 -17.5 75.5t-46 49t-65.5 25.5t-78 7h-139z" />
<glyph unicode="Q" horiz-adv-x="1282" d="M86 449q0 186 50 337.5t142.5 258t223.5 164t295 57.5q231 0 351 -119t120 -350q0 -188 -50.5 -340t-143.5 -258.5t-224 -162.5t-293 -56q-231 0 -351 117.5t-120 351.5zM352 463q0 -141 61.5 -215t172.5 -74q82 0 156.5 42t132 122t90 193.5t32.5 254.5q0 143 -61 216 t-172 73q-84 0 -158 -43t-131 -122t-90 -192.5t-33 -254.5zM653 33l195 127q72 -76 131 -148.5t131 -148.5q-57 -35 -101 -68t-104 -67z" />
<glyph unicode="R" horiz-adv-x="1105" d="M18 0l265 1245h419q92 0 171 -15.5t136.5 -52t90.5 -96t33 -145.5q0 -92 -28 -163t-75 -122t-113.5 -85t-142.5 -54l203 -512h-277l-180 489h-145l-105 -489h-252zM416 686h219q41 0 82 11.5t73.5 37t53 68.5t20.5 104q0 43 -20.5 70t-52 42t-69.5 20t-73 5h-155z" />
<glyph unicode="S" horiz-adv-x="1019" d="M14 66l109 184q66 -31 141.5 -47.5t143.5 -16.5q53 0 102 9.5t86 29t59.5 50t22.5 71.5q0 45 -24.5 71.5t-41.5 35.5q-66 35 -135 62.5t-141 62.5q-82 41 -131 108.5t-49 157.5q0 104 37.5 184t108.5 132t168 79t218 27q94 0 186.5 -17.5t169.5 -58.5l-102 -182 q-51 23 -117.5 40t-152.5 17q-104 0 -178 -38t-74 -122q0 -49 28.5 -77.5t57.5 -43.5q53 -27 127 -55.5t137 -62.5q68 -37 117 -102.5t49 -164.5q0 -104 -40 -183t-111.5 -131t-170 -78.5t-217.5 -26.5q-100 0 -195.5 20t-187.5 66z" />
<glyph unicode="T" horiz-adv-x="1024" d="M150 1044l43 201h962l-41 -201h-356l-221 -1044h-254l221 1044h-354z" />
<glyph unicode="U" horiz-adv-x="1183" d="M104 322v14q0 99 25 217l145 692h254l-161 -764q-13 -53 -15 -107v-16q0 -45 12 -83q14 -44 52.5 -71.5t105.5 -27.5q68 0 118 18.5t87 58.5t63.5 103.5t45.5 155.5l155 733h254l-158 -747q-59 -274 -205.5 -396t-383.5 -122q-137 0 -222.5 41.5t-127.5 119t-44 181.5z " />
<glyph unicode="V" horiz-adv-x="1122" d="M170 1245h258l98 -1046h17l475 1046h264l-620 -1245h-336z" />
<glyph unicode="W" horiz-adv-x="1761" d="M188 1245h256l27 -1046h16l377 1046h373l-25 -1046h17l409 1046h258l-540 -1245h-361l21 1049h-17l-381 -1049h-366z" />
<glyph unicode="X" horiz-adv-x="1126" d="M-94 0l510 643l-223 602h276l147 -461h35l326 461h287l-469 -604l239 -641h-276l-170 504h-37l-363 -504h-282z" />
<glyph unicode="Y" horiz-adv-x="1095" d="M156 1245h270l176 -530h16l377 530h269l-572 -756l-106 -489h-254l125 489q-37 80 -76 179.5t-77 203t-74.5 200.5t-73.5 173z" />
<glyph unicode="Z" horiz-adv-x="1073" d="M-37 0l29 158l817 891h-598l39 196h907l-33 -158l-813 -888h639l-39 -199h-948z" />
<glyph unicode="[" horiz-adv-x="645" d="M-102 -377l354 1669h510l-41 -198h-260l-271 -1276h259l-41 -195h-510z" />
<glyph unicode="\" horiz-adv-x="716" d="M186 1307h238l194 -1368h-237z" />
<glyph unicode="]" horiz-adv-x="645" d="M-98 -377l41 195h260l272 1276h-260l41 198h510l-354 -1669h-510z" />
<glyph unicode="^" horiz-adv-x="854" d="M78 584l352 661h350l70 -661h-211l-57 491h-17l-262 -491h-225z" />
<glyph unicode="_" horiz-adv-x="784" d="M-82 -250l35 168h668l-37 -168h-666z" />
<glyph unicode="`" horiz-adv-x="997" d="M397 1298h271l147 -299h-219z" />
<glyph unicode="a" horiz-adv-x="954" d="M43 289q0 156 42 268.5t110.5 186t158.5 108.5t189 35q53 0 107.5 -10.5t103.5 -38.5l14 28h186l-120 -536l-46 -330h-198l-12 76q-51 -49 -117 -72.5t-144 -23.5q-133 0 -203.5 80.5t-70.5 228.5zM299 326q0 -84 28.5 -133.5t98.5 -49.5q74 0 131 41l113 531 q-47 18 -84 18q-70 0 -123 -29.5t-89 -84t-55.5 -129t-19.5 -164.5z" />
<glyph unicode="b" horiz-adv-x="956" d="M2 0l277 1282l256 33l-105 -484q88 55 209 56q125 0 198.5 -84t73.5 -225q0 -113 -31.5 -220.5t-96 -190.5t-162 -133t-228.5 -50q-49 0 -98 8t-94 31l-13 -23h-186zM283 154q23 -10 42 -12.5t37 -2.5q80 0 137.5 37t92.5 95.5t51 132t16 149.5q0 74 -34 122t-97 48 q-74 0 -131 -41z" />
<glyph unicode="c" horiz-adv-x="829" d="M45 332q0 129 39 232.5t109.5 175t168 109.5t213.5 38q90 0 174.5 -25.5t124.5 -68.5l-149 -144q-55 70 -170 70q-57 0 -105.5 -25.5t-82 -73t-53 -113t-19.5 -145.5q0 -100 44 -156t136 -56q63 0 120.5 17t111.5 42v-154q-53 -33 -127 -54t-181 -21q-94 0 -160.5 24.5 t-109.5 70.5t-63.5 111.5t-20.5 145.5z" />
<glyph unicode="d" horiz-adv-x="952" d="M45 289q0 160 44 273.5t118 186t172 105.5t207 33q70 0 119 -15l88 410l258 33l-230 -1082l-33 -233h-213l-8 61q-95 -81 -244 -81h-4q-133 0 -203.5 80.5t-70.5 228.5zM301 326q0 -84 28.5 -133.5t98.5 -49.5q76 0 133 41l111 527q-41 14 -78 14q-141 0 -217 -109.5 t-76 -289.5z" />
<glyph unicode="e" horiz-adv-x="919" d="M45 303q0 117 33 222.5t100.5 185.5t167.5 128t236 48q150 0 233.5 -58.5t83.5 -169.5q0 -100 -55.5 -162.5t-142.5 -98.5t-193.5 -52t-208.5 -22v-23q0 -74 43 -110.5t139 -36.5q92 0 169 21.5t134 49.5v-153q-29 -16 -71.5 -31.5t-93 -30t-104.5 -22.5t-107 -8 q-78 0 -143.5 17t-115 56t-77 100.5t-27.5 149.5zM311 467q68 4 129.5 13t107.5 27.5t73.5 47.5t27.5 76q0 45 -29.5 69.5t-76.5 24.5q-55 0 -94 -21.5t-67 -57.5t-45.5 -83t-25.5 -96z" />
<glyph unicode="f" horiz-adv-x="688" d="M-229 -424l49 178q14 -2 27.5 -3t27.5 -1q86 0 124 37t54 115l158 784h-148l39 180h144l20 101q18 98 60.5 164.5t100.5 107.5t131 58.5t153 17.5q57 0 109 -8.5t93 -26.5l-88 -174q-50 27 -116 27q-86 0 -130 -37t-61 -115l-22 -115h256l-39 -180h-254l-162 -770 q-20 -98 -59 -164.5t-93.5 -107.5t-123 -58.5t-148.5 -17.5q-27 0 -53.5 2t-48.5 6z" />
<glyph unicode="g" horiz-adv-x="954" d="M-23 -397l70 180q31 -12 87 -24.5t128 -12.5q92 0 159.5 41t90.5 145l23 107q-90 -59 -211 -59q-133 0 -205 80.5t-72 228.5q0 156 41 268.5t110.5 186t160 108.5t188.5 35q53 0 106.5 -10.5t100.5 -38.5l16 28h186l-190 -889q-25 -113 -71 -191.5t-111.5 -127.5 t-148.5 -71.5t-179 -22.5q-76 0 -153.5 11t-125.5 28zM303 326q0 -82 28.5 -133.5t100.5 -51.5t129 41l111 527q-23 10 -43.5 14t-38.5 4q-141 0 -214 -109.5t-73 -291.5z" />
<glyph unicode="h" horiz-adv-x="937" d="M6 0l273 1282l258 33l-109 -504q55 37 115.5 56.5t120.5 19.5q125 0 180 -53.5t55 -155.5q0 -27 -4 -55.5t-10 -61.5l-119 -561h-252l115 530q4 23 8 45.5t4 45.5q0 35 -15.5 58t-62.5 23q-92 0 -178 -98l-129 -604h-250z" />
<glyph unicode="i" horiz-adv-x="440" d="M6 0l184 866h250l-184 -866h-250zM227 1047l41 198h256l-43 -198h-254z" />
<glyph unicode="j" horiz-adv-x="436" d="M-215 -436l39 178h20q66 0 94.5 35t47.5 123l207 966h247l-198 -936q-23 -106 -59 -176.5t-90 -112.5t-126.5 -59.5t-167.5 -17.5h-14zM227 1051l41 194h254l-43 -194h-252z" />
<glyph unicode="k" horiz-adv-x="897" d="M6 0l273 1282l256 33l-162 -754h59l301 305h277l-406 -401l240 -465h-275l-178 375h-57l-80 -375h-248z" />
<glyph unicode="l" horiz-adv-x="468" d="M53 176q0 47 13 103l213 1003l256 33l-218 -1020q-12 -53 -12 -76q0 -29 18.5 -40t65.5 -13l-37 -172q-10 -2 -20 -2q-10 -2 -22.5 -2h-22.5q-121 0 -177.5 45t-56.5 141z" />
<glyph unicode="m" horiz-adv-x="1392" d="M6 0l113 526l51 340h201v-96q59 55 133 86t145 31q166 0 207 -111q61 53 133 82t141 29q117 0 170.5 -53.5t53.5 -153.5q0 -27 -4 -56.5t-11 -62.5l-118 -561h-252l114 530q4 23 7.5 46.5t3.5 46.5q0 35 -13.5 57t-50.5 22q-88 0 -164 -92l-8 -49l-119 -561h-252l115 530 q4 23 7 46.5t3 46.5q0 35 -13 57t-50 22q-84 0 -162 -88l-131 -614h-250z" />
<glyph unicode="n" horiz-adv-x="937" d="M6 0l113 526l51 340h201v-98q63 55 141 87t152 32q125 0 180 -53.5t55 -155.5q0 -27 -4 -55.5t-10 -61.5l-119 -561h-252l115 530q4 23 8 45.5t4 45.5q0 35 -15.5 58t-62.5 23q-92 0 -178 -96l-129 -606h-250z" />
<glyph unicode="o" horiz-adv-x="974" d="M43 291q0 135 38 244.5t108.5 188.5t173 121t231.5 42q182 0 263 -86t81 -230q0 -135 -38 -244.5t-109.5 -186.5t-174 -118.5t-231.5 -41.5q-182 0 -262 83.5t-80 227.5zM299 307q0 -68 30 -114t93 -46q55 0 103 29t84 82t55.5 129t19.5 172q0 66 -30.5 114t-96.5 48 q-55 0 -102 -28.5t-82 -83t-54.5 -131.5t-19.5 -171z" />
<glyph unicode="p" horiz-adv-x="958" d="M-88 -436l227 1069l33 233h213l4 -67q104 88 254 88q127 0 201 -84t74 -225q0 -119 -34 -226.5t-99.5 -189.5t-163 -130t-224.5 -48q-74 0 -141 18l-86 -405zM287 154q23 -10 42 -12.5t38 -2.5q82 0 138 38t92 97.5t51.5 133t15.5 145.5q0 76 -33 123t-99 47 q-78 0 -133 -43z" />
<glyph unicode="q" horiz-adv-x="958" d="M51 289q0 113 32 220t96.5 190t161.5 133.5t228 50.5q49 0 97.5 -8.5t95.5 -30.5l12 22h187l-275 -1269l-256 -33l102 471q-90 -55 -208 -55q-125 0 -199 83.5t-74 225.5zM303 313q0 -74 34 -122t97 -48q74 0 131 41l115 529q-41 14 -80 14q-80 0 -137 -37t-92 -95 t-51.5 -132t-16.5 -150z" />
<glyph unicode="r" horiz-adv-x="702" d="M6 0l113 526l51 340h201v-133q55 72 127.5 113t165.5 41q43 0 73.5 -6.5t50.5 -16.5l-86 -198q-41 20 -94 20q-143 0 -235 -145l-117 -541h-250z" />
<glyph unicode="s" horiz-adv-x="806" d="M4 43l80 174q51 -27 115.5 -43t134.5 -16q18 0 45 2t49.5 9t38.5 23.5t16 45.5q0 35 -23.5 53t-72.5 41q-23 10 -62.5 25.5t-60.5 25.5q-82 35 -129 81t-47 122q0 82 36 139t95.5 93t134 52.5t154.5 16.5q92 0 168 -17.5t117 -35.5l-72 -177q-51 27 -105.5 41.5 t-126.5 14.5q-18 0 -44.5 -2t-52 -9.5t-43 -23.5t-17.5 -45q0 -33 24.5 -50.5t69.5 -35.5q12 -6 30.5 -13.5t38 -14.5t38 -14t28.5 -11q72 -29 120 -77t48 -124q0 -86 -35 -145.5t-92 -97.5t-133 -54t-158 -16q-104 0 -172.5 17t-134.5 46z" />
<glyph unicode="t" horiz-adv-x="722" d="M61 686l35 160l144 16l36 166l259 43l-43 -205h286l-39 -178h-284l-74 -348q-4 -23 -8 -45.5t-4 -40.5q0 -37 18.5 -59.5t71.5 -22.5q51 0 95 9t85 26v-162q-72 -37 -138.5 -51t-148.5 -14q-243 0 -243 208q0 22 3 45t7 48l86 405h-144z" />
<glyph unicode="u" horiz-adv-x="940" d="M47 188q0 27 5 60t9 57l119 561h252l-115 -530q-4 -23 -8 -47.5t-4 -44.5q0 -35 15.5 -57.5t62.5 -22.5q92 0 176 96l131 606h250l-113 -526l-51 -340h-201v98q-66 -57 -143.5 -87.5t-148.5 -30.5q-125 0 -180.5 53t-55.5 155z" />
<glyph unicode="v" horiz-adv-x="849" d="M74 866h252l41 -698h16l317 698h254l-458 -866h-326z" />
<glyph unicode="w" horiz-adv-x="1339" d="M100 866h246v-698h16l232 698h336l-43 -698h16l268 698h248l-393 -866h-340l51 698h-16l-242 -698h-348z" />
<glyph unicode="x" horiz-adv-x="888" d="M-78 0l338 453l-158 413h273l90 -319h31l217 319h266l-328 -413l164 -453h-274l-99 336h-28l-230 -336h-262z" />
<glyph unicode="y" horiz-adv-x="872" d="M-135 -422l59 164q18 -4 37 -4h33q61 0 97 19.5t59 43.5q27 29 59.5 86.5t62.5 112.5l-182 866h248l90 -594h18l275 594h246l-502 -940q-43 -82 -88 -148.5t-100.5 -114.5t-125 -73.5t-161.5 -25.5q-31 0 -63.5 2t-61.5 12z" />
<glyph unicode="z" horiz-adv-x="868" d="M-35 0l31 143l575 545h-444l41 178h739l-30 -143l-578 -545h467l-39 -178h-762z" />
<glyph unicode="{" horiz-adv-x="673" d="M20 397l43 205q59 8 106.5 47t66.5 123l67 320q29 133 127 202.5t270 69.5h134l-41 -199h-27q-104 0 -156.5 -34.5t-72.5 -126.5l-60 -281q-23 -102 -70 -149.5t-128 -61.5l-5 -18q57 -16 88 -47t31 -93q0 -27 -10 -73l-59 -283q-6 -29 -7 -51q0 -59 41 -80t127 -21h27 l-43 -196h-145q-127 0 -198 64.5t-71 172.5q0 16 2 38t6 36l56 266q2 8 4 23.5t2 25.5q0 55 -25.5 83t-79.5 38z" />
<glyph unicode="|" horiz-adv-x="425" d="M-53 -354l364 1714h191l-365 -1714h-190z" />
<glyph unicode="}" horiz-adv-x="675" d="M-121 -350l41 198h27q104 0 156.5 35t72.5 127l60 281q23 102 69.5 149t128.5 62l4 18q-57 16 -86.5 47t-29.5 92q0 35 8 74l59 283q6 27 6 51q0 59 -41 79.5t-127 20.5h-26l43 197h145q127 0 197.5 -63.5t70.5 -172.5q0 -39 -8 -73l-55 -269q-6 -29 -6 -49 q0 -55 28.5 -84.5t75.5 -36.5l-43 -204q-59 -8 -106 -47t-66 -123l-67 -320q-29 -131 -127.5 -201.5t-270.5 -70.5h-133z" />
<glyph unicode="~" horiz-adv-x="882" d="M49 520q57 47 136 78t163 31q45 0 79 -9.5t62.5 -20.5t58.5 -20.5t66 -9.5q47 0 94.5 17.5t90.5 40.5l69 -142q-59 -47 -138 -78.5t-165 -31.5q-45 0 -77.5 10t-61.5 21.5t-57.5 21.5t-65.5 10q-49 0 -97 -17.5t-91 -43.5z" />
<glyph unicode="&#xa1;" horiz-adv-x="516" d="M-51 -379l229 887h199l-146 -887h-282zM180 631l49 235h250l-49 -235h-250z" />
<glyph unicode="&#xa2;" horiz-adv-x="856" d="M29 332q0 129 38.5 232.5t109.5 175t168 109.5t214 38q90 0 174 -25.5t125 -68.5l-149 -144q-55 70 -170 70q-57 0 -105.5 -25.5t-82.5 -73t-53 -113t-19 -145.5q0 -100 44 -156t136 -56q63 0 120.5 17t110.5 42v-154q-53 -33 -127 -54t-180 -21q-94 0 -160.5 24.5 t-109.5 70.5t-63.5 111.5t-20.5 145.5zM293 -174l258 1214h137l-258 -1214h-137z" />
<glyph unicode="&#xa3;" horiz-adv-x="923" d="M-23 0l37 170q88 59 131 132t64 179l4 23h-125l39 184h125l41 193q25 113 72 187.5t113.5 118.5t149.5 61.5t177 17.5q133 0 227 -41l-106 -176q-35 18 -66 25t-72 7q-66 0 -108.5 -16t-70 -49t-44 -81t-28.5 -112l-29 -135h338l-39 -184h-338l-4 -19 q-25 -109 -61.5 -176t-118.5 -108h516l-43 -201h-781z" />
<glyph unicode="&#xa4;" horiz-adv-x="911" d="M-18 242l170 145q-8 27 -9 68q0 70 23.5 132t66.5 113l-114 146l164 139l125 -160q41 16 82.5 24.5t87.5 8.5q55 0 104 -27l164 138l125 -158l-166 -137q12 -43 12 -84q0 -63 -18.5 -120.5t-53.5 -107.5l103 -129l-174 -139l-99 127q-78 -33 -159 -33q-86 0 -156 48 l-168 -144zM356 492q0 -53 24.5 -82t65.5 -29q66 0 112 49t46 123q0 49 -24.5 80t-65.5 31q-63 0 -110.5 -48.5t-47.5 -123.5z" />
<glyph unicode="&#xa5;" horiz-adv-x="1114" d="M88 326l29 139h348l14 59l-24 51h-314l29 138h227q-57 135 -112.5 277.5t-108.5 254.5h270l179 -495h16l375 495h268l-422 -532h209l-29 -138h-288l-39 -51l-13 -59h316l-29 -139h-315l-68 -326h-254l78 326h-342z" />
<glyph unicode="&#xa6;" horiz-adv-x="425" d="M-45 -354l143 673h191l-144 -673h-190zM176 686l143 674h191l-143 -674h-191z" />
<glyph unicode="&#xa7;" horiz-adv-x="968" d="M-59 -358l96 170q59 -29 127.5 -44.5t130.5 -15.5q133 0 187.5 42t54.5 100q0 41 -26 65.5t-40 30.5q-59 31 -121.5 56.5t-128.5 57.5q-78 37 -122 99.5t-44 148.5q0 121 57.5 207t174.5 131q-45 41 -68.5 98.5t-23.5 122.5q0 160 118.5 257.5t356.5 97.5q86 0 170 -16.5 t155 -53.5l-90 -166q-47 23 -107.5 38t-138.5 15q-123 0 -174 -39.5t-51 -99.5q0 -45 29 -70.5t55 -37.5q49 -23 114.5 -50.5t125.5 -60.5q61 -33 107 -94.5t46 -153.5q0 -123 -63.5 -202.5t-179.5 -118.5q45 -41 73.5 -102.5t28.5 -135.5q0 -160 -125 -257t-354 -97 q-186 0 -350 78zM297 428q0 -51 22.5 -81t61.5 -48q29 -16 63.5 -30.5t71.5 -30.5q86 23 122 73.5t36 98.5q0 49 -18.5 76.5t-45.5 41.5q-39 20 -78.5 37t-80.5 33q-84 -18 -119 -69.5t-35 -100.5z" />
<glyph unicode="&#xa8;" horiz-adv-x="997" d="M322 1047l43 198h243l-43 -198h-243zM698 1047l41 198h244l-41 -198h-244z" />
<glyph unicode="&#xa9;" horiz-adv-x="1417" d="M80 483q0 182 62.5 326.5t172 246t256 156t314.5 54.5q121 0 219 -34t167.5 -98.5t107.5 -158.5t38 -213q0 -182 -63.5 -326.5t-172 -246t-256 -155.5t-315.5 -54q-121 0 -219 33.5t-166.5 98t-106.5 159t-38 212.5zM244 510q0 -180 99 -283.5t298 -103.5q135 0 247.5 47 t192.5 129t125 193.5t45 240.5q0 178 -99 283.5t-296 105.5q-137 0 -249.5 -47t-193.5 -129t-125 -194.5t-44 -241.5zM393 545q0 94 28 173t82 137t132 91t176 33q76 0 143.5 -19.5t108.5 -60.5l-127 -117q-25 35 -55.5 47.5t-75.5 12.5q-100 0 -154.5 -77t-54.5 -198 q0 -76 36 -117.5t107 -41.5q41 0 90.5 14t98.5 39v-127q-43 -27 -104.5 -45.5t-153.5 -18.5q-145 0 -211 74t-66 201z" />
<glyph unicode="&#xab;" horiz-adv-x="999" d="M33 432l383 373l137 -129l-256 -252l141 -236l-182 -127zM442 432l398 373l135 -129l-266 -252l155 -236l-184 -127z" />
<glyph unicode="&#xad;" horiz-adv-x="671" d="M70 338l45 211h499l-45 -211h-499z" />
<glyph unicode="&#xae;" horiz-adv-x="839" d="M82 831q0 119 41 214.5t111.5 161t167 101t206.5 35.5q160 0 252 -86.5t92 -244.5q0 -123 -40 -218.5t-110.5 -161t-166.5 -99t-207 -33.5q-158 0 -252 87t-94 244zM188 850q0 -121 64.5 -189.5t196.5 -68.5q88 0 161.5 30.5t127 85t82 127t28.5 158.5q0 119 -63.5 188.5 t-196.5 69.5q-88 0 -162 -30.5t-126 -85t-82 -128t-30 -157.5zM293 698l96 453h184q74 0 116 -25.5t42 -83.5q0 -57 -28.5 -95t-75.5 -60l55 -189h-133l-49 168h-41l-35 -168h-131zM479 958h49q29 0 46.5 17.5t17.5 46.5q0 18 -14.5 25.5t-28.5 7.5h-49z" />
<glyph unicode="&#xaf;" horiz-adv-x="999" d="M332 1053l39 186h600l-39 -186h-600z" />
<glyph unicode="&#xb0;" horiz-adv-x="649" d="M127 938q0 160 91 244t263 84q135 0 210 -74t75 -180q0 -158 -92 -241t-264 -85q-137 4 -210 74.5t-73 177.5zM322 965q0 -51 25.5 -80t82.5 -29q78 0 110.5 35t32.5 96q0 47 -28.5 79t-83.5 32q-76 0 -107.5 -40t-31.5 -93z" />
<glyph unicode="&#xb1;" horiz-adv-x="1705" />
<glyph unicode="&#xb2;" horiz-adv-x="581" d="M84 606l18 88l281 232q51 41 71.5 67.5t20.5 63.5q0 29 -18.5 48t-59.5 19q-47 0 -91 -10t-87 -33l-33 115q74 39 140.5 50t119.5 11q209 0 209 -167q0 -41 -13 -73t-35.5 -59.5t-52.5 -52t-62 -51.5l-146 -115h260l-26 -133h-496z" />
<glyph unicode="&#xb3;" horiz-adv-x="581" d="M86 678l96 98q29 -23 68 -34t80 -11q47 0 83 18.5t36 61.5q0 35 -31 51.5t-76 16.5q-18 0 -37.5 -1t-38.5 -6l25 119h63q12 0 35 3t44.5 10.5t37.5 22.5t16 40q0 27 -21.5 42t-55.5 15q-47 0 -84 -11t-78 -34l-37 107q43 29 110.5 50t141.5 21q92 0 148.5 -37.5 t56.5 -111.5q0 -33 -13.5 -57.5t-34 -43t-46 -31.5t-50.5 -20q47 -12 76 -48t29 -83q0 -55 -23.5 -98t-64.5 -72.5t-97.5 -46t-124.5 -16.5q-72 0 -135 22.5t-98 63.5z" />
<glyph unicode="&#xb4;" horiz-adv-x="997" d="M420 999l268 299h281l-316 -299h-233z" />
<glyph unicode="&#xb5;" horiz-adv-x="950" d="M-92 -420l272 1286h252l-94 -442q-10 -43 -20.5 -92t-10.5 -80t16.5 -54.5t65.5 -23.5q51 0 95 13.5t79 35.5l137 643h250l-133 -633l-35 -233h-231l4 53q-109 -72 -236 -71q-47 0 -88 10q-4 -25 -9 -57.5t-11 -77.5q-6 -41 -15.5 -89.5t-17.5 -90.5t-14 -69l-6 -28h-250 z" />
<glyph unicode="&#xb6;" horiz-adv-x="1140" d="M127 696q0 150 36 254.5t103.5 170t163.5 95t215 29.5h545l-352 -1653l-156 -12l322 1518h-162l-320 -1506l-170 -12l178 838h-102q-86 0 -143.5 21.5t-92 58.5t-50 88t-15.5 110z" />
<glyph unicode="&#xb7;" horiz-adv-x="483" d="M108 383l50 236h251l-51 -236h-250z" />
<glyph unicode="&#xb8;" horiz-adv-x="997" d="M88 -397l84 139q29 -10 53.5 -15.5t55.5 -5.5q51 0 82.5 17.5t31.5 66.5q0 37 -32.5 49.5t-106.5 24.5l72 119q147 -12 223 -51t76 -127q0 -117 -79 -183.5t-267 -66.5q-55 0 -108.5 10t-84.5 23z" />
<glyph unicode="&#xb9;" horiz-adv-x="581" d="M197 1133l276 118h117l-137 -645h-168l102 484l-145 -62z" />
<glyph unicode="&#xbb;" horiz-adv-x="999" d="M8 190l266 252l-155 236l184 127l238 -371l-398 -373zM430 190l256 252l-141 236l182 127l223 -371l-383 -373z" />
<glyph unicode="&#xbd;" horiz-adv-x="1277" d="M-27 -61l1172 1368h215l-1172 -1368h-215zM195 1133l276 118h117l-137 -645h-168l102 484l-145 -62zM719 0l18 88l281 231q51 41 71.5 68t20.5 64q0 29 -18.5 48t-59.5 19q-47 0 -91 -10t-87 -33l-33 115q74 39 140.5 50t119.5 11q209 0 209 -168q0 -41 -13 -72.5 t-35.5 -59t-52.5 -52.5t-63 -51l-145 -115h260l-27 -133h-495z" />
<glyph unicode="&#xbf;" horiz-adv-x="845" d="M-55 -146q0 68 28.5 120t73.5 96t98.5 84t101.5 82t86 90t50 110l14 70h228l-25 -119q-20 -102 -80.5 -171t-125 -121t-114.5 -95t-50 -97q0 -57 46 -79.5t105 -22.5q66 0 128.5 15.5t111.5 39.5l24 -180q-76 -35 -164 -55.5t-186 -20.5q-70 0 -133.5 16.5t-111.5 48.5 t-76.5 79t-28.5 110zM410 630l51 236h250l-49 -236h-252z" />
<glyph unicode="&#xc0;" horiz-adv-x="1202" d="M-86 0l676 1245h336l178 -1245h-275l-36 322h-443l-164 -322h-272zM455 524h317l-47 525h-16zM489 1679h271l147 -299h-219z" />
<glyph unicode="&#xc1;" horiz-adv-x="1202" d="M-86 0l676 1245h336l178 -1245h-275l-36 322h-443l-164 -322h-272zM455 524h317l-47 525h-16zM662 1380l268 299h281l-316 -299h-233z" />
<glyph unicode="&#xc2;" horiz-adv-x="1202" d="M-86 0l676 1245h336l178 -1245h-275l-36 322h-443l-164 -322h-272zM430 1378l267 299h305l115 -299h-207l-74 175h-20l-170 -175h-216zM455 524h317l-47 525h-16z" />
<glyph unicode="&#xc3;" horiz-adv-x="1202" d="M-86 0l676 1245h336l178 -1245h-275l-36 322h-443l-164 -322h-272zM424 1553q49 41 110.5 67.5t130.5 26.5q45 0 80 -10.5t67 -22.5t62.5 -22.5t65.5 -10.5q47 0 87 16.5t75 41.5l61 -140q-49 -41 -110.5 -68.5t-131.5 -27.5q-45 0 -79.5 10t-66.5 23.5t-62.5 24 t-65.5 10.5q-47 0 -86 -16.5t-76 -41.5zM455 524h317l-47 525h-16z" />
<glyph unicode="&#xc4;" horiz-adv-x="1202" d="M-86 0l676 1245h336l178 -1245h-275l-36 322h-443l-164 -322h-272zM455 524h317l-47 525h-16zM476 1426l43 198h243l-43 -198h-243zM852 1426l41 198h244l-41 -198h-244z" />
<glyph unicode="&#xc5;" horiz-adv-x="1202" d="M-86 0l676 1245h336l178 -1245h-275l-36 322h-443l-164 -322h-272zM455 524h317l-47 525h-16zM594 1507q0 115 70.5 181.5t206.5 66.5q98 0 147 -53.5t49 -120.5q0 -117 -70.5 -181.5t-205.5 -64.5q-100 0 -148.5 52t-48.5 120zM748 1532q0 -29 17 -47.5t50 -18.5 q45 0 71 22.5t26 67.5q0 29 -17.5 47.5t-48.5 18.5q-98 0 -98 -90z" />
<glyph unicode="&#xc6;" horiz-adv-x="1701" d="M-137 0l983 1245h917l-41 -201h-542l-47 -305h505l-41 -196h-497l-56 -342h519l-43 -201h-758l51 322h-442l-248 -322h-260zM528 524h320l86 520h-16z" />
<glyph unicode="&#xc7;" horiz-adv-x="1095" d="M86 489q0 152 44 292.5t132 248t219 172t307 64.5q117 0 219.5 -34t180.5 -114l-152 -147q-49 47 -113.5 71.5t-150.5 24.5q-113 0 -193.5 -48t-133 -128t-78 -182.5t-25.5 -208.5q0 -70 18.5 -128.5t58.5 -101.5t105.5 -66.5t159.5 -23.5q76 0 134.5 14.5t123.5 38.5 l19 -192q-57 -27 -145.5 -44t-186.5 -17q-123 0 -222.5 31.5t-171 95t-110.5 159.5t-39 223zM166 -397l84 139q29 -10 53.5 -15.5t55.5 -5.5q51 0 82.5 17.5t31.5 66.5q0 37 -32.5 49.5t-106.5 24.5l72 119q147 -12 223 -51t76 -127q0 -117 -79 -183.5t-267 -66.5 q-55 0 -108.5 10t-84.5 23z" />
<glyph unicode="&#xc8;" horiz-adv-x="1007" d="M18 0l265 1245h788l-43 -201h-532l-66 -305h516l-41 -196h-516l-74 -342h555l-43 -201h-809zM420 1679h271l147 -299h-219z" />
<glyph unicode="&#xc9;" horiz-adv-x="1007" d="M18 0l265 1245h788l-43 -201h-532l-66 -305h516l-41 -196h-516l-74 -342h555l-43 -201h-809zM637 1380l268 299h281l-316 -299h-233z" />
<glyph unicode="&#xca;" horiz-adv-x="1007" d="M18 0l265 1245h788l-43 -201h-532l-66 -305h516l-41 -196h-516l-74 -342h555l-43 -201h-809zM372 1378l267 299h305l115 -299h-207l-74 175h-20l-170 -175h-216z" />
<glyph unicode="&#xcb;" horiz-adv-x="1007" d="M18 0l265 1245h788l-43 -201h-532l-66 -305h516l-41 -196h-516l-74 -342h555l-43 -201h-809zM406 1397l43 198h243l-43 -198h-243zM782 1397l41 198h244l-41 -198h-244z" />
<glyph unicode="&#xcc;" horiz-adv-x="487" d="M18 0l265 1245h256l-267 -1245h-254zM159 1679h271l147 -299h-219z" />
<glyph unicode="&#xcd;" horiz-adv-x="487" d="M18 0l265 1245h256l-267 -1245h-254zM295 1380l268 299h281l-316 -299h-233z" />
<glyph unicode="&#xce;" horiz-adv-x="487" d="M18 0l265 1245h256l-267 -1245h-254zM94 1378l267 299h305l115 -299h-207l-74 175h-20l-170 -175h-216z" />
<glyph unicode="&#xcf;" horiz-adv-x="487" d="M18 0l265 1245h256l-267 -1245h-254zM136 1397l43 198h243l-43 -198h-243zM512 1397l41 198h244l-41 -198h-244z" />
<glyph unicode="&#xd0;" horiz-adv-x="1261" d="M41 524l43 199h618l-43 -199h-618zM53 0l264 1245h373q135 0 239.5 -34.5t175.5 -98t106.5 -153t35.5 -199.5q0 -195 -59.5 -338t-168 -237.5t-259 -139.5t-332.5 -45h-375zM344 195h117q119 0 215 35.5t164.5 105.5t105.5 169t37 226q0 150 -86 234t-242 84h-131z" />
<glyph unicode="&#xd1;" horiz-adv-x="1325" d="M18 0l265 1245h440l164 -1048h14l223 1048h256l-266 -1245h-438l-164 1049h-16l-224 -1049h-254zM504 1559q49 41 110.5 67.5t130.5 26.5q45 0 80 -10.5t67 -22.5t62.5 -22.5t65.5 -10.5q47 0 87 16.5t75 41.5l61 -140q-49 -41 -110.5 -68.5t-131.5 -27.5q-45 0 -79.5 10 t-66.5 23.5t-62.5 24t-65.5 10.5q-47 0 -86 -16.5t-76 -41.5z" />
<glyph unicode="&#xd2;" horiz-adv-x="1282" d="M86 449q0 186 50 337.5t142.5 258t223.5 164t295 57.5q231 0 351 -119t120 -350q0 -188 -50.5 -340t-143.5 -258.5t-224 -162.5t-293 -56q-231 0 -351 117.5t-120 351.5zM352 463q0 -141 61.5 -215t172.5 -74q82 0 156.5 42t132 122t90 193.5t32.5 254.5q0 143 -61 216 t-172 73q-84 0 -158 -43t-131 -122t-90 -192.5t-33 -254.5zM475 1679h271l147 -299h-219z" />
<glyph unicode="&#xd3;" horiz-adv-x="1282" d="M86 449q0 186 50 337.5t142.5 258t223.5 164t295 57.5q231 0 351 -119t120 -350q0 -188 -50.5 -340t-143.5 -258.5t-224 -162.5t-293 -56q-231 0 -351 117.5t-120 351.5zM352 463q0 -141 61.5 -215t172.5 -74q82 0 156.5 42t132 122t90 193.5t32.5 254.5q0 143 -61 216 t-172 73q-84 0 -158 -43t-131 -122t-90 -192.5t-33 -254.5zM770 1380l268 299h281l-316 -299h-233z" />
<glyph unicode="&#xd4;" horiz-adv-x="1282" d="M86 449q0 186 50 337.5t142.5 258t223.5 164t295 57.5q231 0 351 -119t120 -350q0 -188 -50.5 -340t-143.5 -258.5t-224 -162.5t-293 -56q-231 0 -351 117.5t-120 351.5zM352 463q0 -141 61.5 -215t172.5 -74q82 0 156.5 42t132 122t90 193.5t32.5 254.5q0 143 -61 216 t-172 73q-84 0 -158 -43t-131 -122t-90 -192.5t-33 -254.5zM493 1378l267 299h305l115 -299h-207l-74 175h-20l-170 -175h-216z" />
<glyph unicode="&#xd5;" horiz-adv-x="1282" d="M86 449q0 186 50 337.5t142.5 258t223.5 164t295 57.5q231 0 351 -119t120 -350q0 -188 -50.5 -340t-143.5 -258.5t-224 -162.5t-293 -56q-231 0 -351 117.5t-120 351.5zM352 463q0 -141 61.5 -215t172.5 -74q82 0 156.5 42t132 122t90 193.5t32.5 254.5q0 143 -61 216 t-172 73q-84 0 -158 -43t-131 -122t-90 -192.5t-33 -254.5zM467 1553q49 41 110.5 67.5t130.5 26.5q45 0 80 -10.5t67 -22.5t62.5 -22.5t65.5 -10.5q47 0 87 16.5t75 41.5l61 -140q-49 -41 -110.5 -68.5t-131.5 -27.5q-45 0 -79.5 10t-66.5 23.5t-62.5 24t-65.5 10.5 q-47 0 -86 -16.5t-76 -41.5z" />
<glyph unicode="&#xd6;" horiz-adv-x="1282" d="M86 449q0 186 50 337.5t142.5 258t223.5 164t295 57.5q231 0 351 -119t120 -350q0 -188 -50.5 -340t-143.5 -258.5t-224 -162.5t-293 -56q-231 0 -351 117.5t-120 351.5zM352 463q0 -141 61.5 -215t172.5 -74q82 0 156.5 42t132 122t90 193.5t32.5 254.5q0 143 -61 216 t-172 73q-84 0 -158 -43t-131 -122t-90 -192.5t-33 -254.5zM533 1397l43 198h243l-43 -198h-243zM909 1397l41 198h244l-41 -198h-244z" />
<glyph unicode="&#xd7;" d="M61 225l340 287l-213 279l170 135l209 -275l338 285l123 -156l-340 -286l213 -279l-170 -135l-209 274l-338 -284z" />
<glyph unicode="&#xd8;" horiz-adv-x="1282" d="M-29 -8l174 186q-59 109 -59 271q0 186 50 337.5t142.5 258t223.5 164t295 57.5q178 0 293 -74l163 174l125 -104l-176 -189q66 -109 66 -276q0 -188 -50.5 -340t-143.5 -258.5t-224 -162.5t-293 -56q-193 0 -303 77l-158 -170zM344 428.5q0 -16.5 4 -33.5l580 623 q-61 66 -164 65q-84 0 -160 -44t-133 -124.5t-92 -195.5t-35 -256v-34.5zM420 233q62 -67 166 -67q82 0 158.5 44t134 125t92.5 195.5t35 255.5q0 18 -1 36t-4 34z" />
<glyph unicode="&#xd9;" horiz-adv-x="1183" d="M104 321.5q-2 104.5 25 231.5l145 692h254l-161 -764q-12 -53 -14.5 -107.5t12 -98.5t52.5 -71.5t105 -27.5q68 0 118 18.5t87 58.5t63.5 103.5t45.5 155.5l155 733h254l-158 -747q-59 -274 -205.5 -396t-383.5 -122q-137 0 -222.5 41.5t-127.5 118.5t-44 181.5z M487 1679h271l147 -299h-219z" />
<glyph unicode="&#xda;" horiz-adv-x="1183" d="M104 321.5q-2 104.5 25 231.5l145 692h254l-161 -764q-12 -53 -14.5 -107.5t12 -98.5t52.5 -71.5t105 -27.5q68 0 118 18.5t87 58.5t63.5 103.5t45.5 155.5l155 733h254l-158 -747q-59 -274 -205.5 -396t-383.5 -122q-137 0 -222.5 41.5t-127.5 118.5t-44 181.5z M641 1380l268 299h281l-316 -299h-233z" />
<glyph unicode="&#xdb;" horiz-adv-x="1183" d="M104 321.5q-2 104.5 25 231.5l145 692h254l-161 -764q-12 -53 -14.5 -107.5t12 -98.5t52.5 -71.5t105 -27.5q68 0 118 18.5t87 58.5t63.5 103.5t45.5 155.5l155 733h254l-158 -747q-59 -274 -205.5 -396t-383.5 -122q-137 0 -222.5 41.5t-127.5 118.5t-44 181.5z M442 1378l267 299h305l115 -299h-207l-74 175h-20l-170 -175h-216z" />
<glyph unicode="&#xdc;" horiz-adv-x="1183" d="M104 321.5q-2 104.5 25 231.5l145 692h254l-161 -764q-12 -53 -14.5 -107.5t12 -98.5t52.5 -71.5t105 -27.5q68 0 118 18.5t87 58.5t63.5 103.5t45.5 155.5l155 733h254l-158 -747q-59 -274 -205.5 -396t-383.5 -122q-137 0 -222.5 41.5t-127.5 118.5t-44 181.5z M486 1397l43 198h243l-43 -198h-243zM862 1397l41 198h244l-41 -198h-244z" />
<glyph unicode="&#xdd;" horiz-adv-x="1095" d="M156 1245h270l176 -530h16l377 530h269l-572 -756l-106 -489h-254l125 489q-37 80 -76 179.5t-77 203t-74.5 200.5t-73.5 173zM621 1380l268 299h281l-316 -299h-233z" />
<glyph unicode="&#xde;" horiz-adv-x="1052" d="M18 0l265 1245h252l-48 -217h209q176 0 270.5 -77t94.5 -224q0 -113 -41 -205t-110.5 -156.5t-163 -99.5t-195.5 -35h-232l-49 -231h-252zM360 428h191q41 0 84 14.5t76.5 45t55 79.5t21.5 117q0 41 -13 68.5t-34.5 45t-49 24.5t-54.5 7h-191z" />
<glyph unicode="&#xdf;" horiz-adv-x="1058" d="M2 0l176 823q51 252 185.5 363.5t365.5 111.5q63 0 124.5 -16t110 -49t78 -82t29.5 -115q0 -68 -26.5 -117t-67.5 -84.5t-91 -62.5t-98 -51q-41 -20 -73.5 -41t-34.5 -49q-2 -29 20.5 -46.5t59.5 -35.5q20 -8 54 -25.5t58 -31.5q68 -35 108 -89.5t36 -130.5 q-8 -147 -105.5 -219.5t-277.5 -72.5q-84 0 -151.5 16t-127.5 47l72 164q45 -23 102.5 -37t126.5 -14q131 0 136 77q2 35 -17.5 55.5t-66.5 43.5q-27 14 -55.5 29.5t-51.5 25.5q-80 39 -113.5 87t-29.5 114q4 90 54 149.5t167 116.5q70 35 105.5 72t35.5 92q0 51 -40 74.5 t-85 23.5q-66 0 -109.5 -19.5t-73.5 -55t-49.5 -87t-31.5 -112.5l-180 -842h-248z" />
<glyph unicode="&#xe0;" horiz-adv-x="954" d="M43 289q0 156 42 268.5t110.5 186t158.5 108.5t189 35q53 0 107.5 -10.5t103.5 -38.5l14 28h186l-120 -536l-46 -330h-198l-12 76q-51 -49 -117 -72.5t-144 -23.5q-133 0 -203.5 80.5t-70.5 228.5zM299 326q0 -84 28.5 -133.5t98.5 -49.5q74 0 131 41l113 531 q-47 18 -84 18q-70 0 -123 -29.5t-89 -84t-55.5 -129t-19.5 -164.5zM354 1298h271l147 -299h-219z" />
<glyph unicode="&#xe1;" horiz-adv-x="954" d="M43 289q0 156 42 268.5t110.5 186t158.5 108.5t189 35q53 0 107.5 -10.5t103.5 -38.5l14 28h186l-120 -536l-46 -330h-198l-12 76q-51 -49 -117 -72.5t-144 -23.5q-133 0 -203.5 80.5t-70.5 228.5zM299 326q0 -84 28.5 -133.5t98.5 -49.5q74 0 131 41l113 531 q-47 18 -84 18q-70 0 -123 -29.5t-89 -84t-55.5 -129t-19.5 -164.5zM467 999l268 299h281l-316 -299h-233z" />
<glyph unicode="&#xe2;" horiz-adv-x="954" d="M43 289q0 156 42 268.5t110.5 186t158.5 108.5t189 35q53 0 107.5 -10.5t103.5 -38.5l14 28h186l-120 -536l-46 -330h-198l-12 76q-51 -49 -117 -72.5t-144 -23.5q-133 0 -203.5 80.5t-70.5 228.5zM262 999l267 299h305l115 -299h-207l-74 175h-20l-170 -175h-216z M299 326q0 -84 28.5 -133.5t98.5 -49.5q74 0 131 41l113 531q-47 18 -84 18q-70 0 -123 -29.5t-89 -84t-55.5 -129t-19.5 -164.5z" />
<glyph unicode="&#xe3;" horiz-adv-x="954" d="M43 289q0 156 42 268.5t110.5 186t158.5 108.5t189 35q53 0 107.5 -10.5t103.5 -38.5l14 28h186l-120 -536l-46 -330h-198l-12 76q-51 -49 -117 -72.5t-144 -23.5q-133 0 -203.5 80.5t-70.5 228.5zM234 1174q49 41 110.5 67.5t130.5 26.5q45 0 80 -10.5t67 -22.5 t62.5 -22.5t65.5 -10.5q47 0 87 16.5t75 41.5l61 -140q-49 -41 -110.5 -68.5t-131.5 -27.5q-45 0 -79.5 10t-66.5 23.5t-62.5 24t-65.5 10.5q-47 0 -86 -16.5t-76 -41.5zM299 326q0 -84 28.5 -133.5t98.5 -49.5q74 0 131 41l113 531q-47 18 -84 18q-70 0 -123 -29.5t-89 -84 t-55.5 -129t-19.5 -164.5z" />
<glyph unicode="&#xe4;" horiz-adv-x="954" d="M43 289q0 156 42 268.5t110.5 186t158.5 108.5t189 35q53 0 107.5 -10.5t103.5 -38.5l14 28h186l-120 -536l-46 -330h-198l-12 76q-51 -49 -117 -72.5t-144 -23.5q-133 0 -203.5 80.5t-70.5 228.5zM299 326q0 -84 28.5 -133.5t98.5 -49.5q74 0 131 41l113 531 q-47 18 -84 18q-70 0 -123 -29.5t-89 -84t-55.5 -129t-19.5 -164.5zM318 1047l43 198h243l-43 -198h-243zM694 1047l41 198h244l-41 -198h-244z" />
<glyph unicode="&#xe5;" horiz-adv-x="954" d="M43 289q0 156 42 268.5t110.5 186t158.5 108.5t189 35q53 0 107.5 -10.5t103.5 -38.5l14 28h186l-120 -536l-46 -330h-198l-12 76q-51 -49 -117 -72.5t-144 -23.5q-133 0 -203.5 80.5t-70.5 228.5zM299 326q0 -84 28.5 -133.5t98.5 -49.5q74 0 131 41l113 531 q-47 18 -84 18q-70 0 -123 -29.5t-89 -84t-55.5 -129t-19.5 -164.5zM403 1108q0 115 70.5 181.5t206.5 66.5q98 0 147 -53.5t49 -120.5q0 -117 -70.5 -181.5t-205.5 -64.5q-100 0 -148.5 52t-48.5 120zM557 1133q0 -29 17 -47.5t50 -18.5q45 0 71 22.5t26 67.5 q0 29 -17.5 47.5t-48.5 18.5q-98 0 -98 -90z" />
<glyph unicode="&#xe6;" horiz-adv-x="1404" d="M6 213q0 166 112.5 241.5t319.5 75.5q63 0 142 -6q10 45 10 82q0 106 -139 107q-74 0 -143.5 -15.5t-129.5 -44.5l-18 152q78 39 170 60.5t190 21.5q86 0 155.5 -23.5t106.5 -68.5q59 43 132 67.5t155 24.5q150 0 229.5 -57.5t79.5 -167.5q0 -92 -52 -152.5t-132 -96.5 t-174 -49.5t-178 -13.5h-54v-37q0 -160 181 -159q104 0 183 24.5t114 44.5v-153q-29 -16 -71 -31.5t-91 -29t-102.5 -21.5t-106.5 -8q-102 0 -171 22.5t-110 67.5q-55 -31 -137 -60.5t-201 -29.5q-135 0 -202.5 64.5t-67.5 168.5zM266 252q0 -49 33 -78t86 -29t95 17.5 t71 40.5q-6 37 -6 80v41.5t4 44.5q-61 6 -125 6q-92 0 -125 -38t-33 -85zM805 500h37q45 0 96 5t94 20.5t72 43t29 70.5q0 47 -28 66.5t-75 19.5q-96 0 -149.5 -58.5t-75.5 -166.5z" />
<glyph unicode="&#xe7;" horiz-adv-x="829" d="M45 332q0 129 39 232.5t109.5 175t168 109.5t213.5 38q90 0 174.5 -25.5t124.5 -68.5l-149 -144q-55 70 -170 70q-57 0 -105.5 -25.5t-82 -73t-53 -113t-19.5 -145.5q0 -100 44 -156t136 -56q63 0 120.5 17t111.5 42v-154q-53 -33 -127 -54t-181 -21q-94 0 -160.5 24.5 t-109.5 70.5t-63.5 111.5t-20.5 145.5zM63 -397l84 139q29 -10 53.5 -15.5t55.5 -5.5q51 0 82.5 17.5t31.5 66.5q0 37 -32.5 49.5t-106.5 24.5l72 119q147 -12 223 -51t76 -127q0 -117 -79 -183.5t-267 -66.5q-55 0 -108.5 10t-84.5 23z" />
<glyph unicode="&#xe8;" horiz-adv-x="919" d="M45 303q0 117 33 222.5t100.5 185.5t167.5 128t236 48q150 0 233.5 -58.5t83.5 -169.5q0 -100 -55.5 -162.5t-142.5 -98.5t-193.5 -52t-208.5 -22v-23q0 -74 43 -110.5t139 -36.5q92 0 169 21.5t134 49.5v-153q-29 -16 -71.5 -31.5t-93 -30t-104.5 -22.5t-107 -8 q-78 0 -143.5 17t-115 56t-77 100.5t-27.5 149.5zM311 467q68 4 129.5 13t107.5 27.5t73.5 47.5t27.5 76q0 45 -29.5 69.5t-76.5 24.5q-55 0 -94 -21.5t-67 -57.5t-45.5 -83t-25.5 -96zM334 1298h271l147 -299h-219z" />
<glyph unicode="&#xe9;" horiz-adv-x="919" d="M45 303q0 117 33 222.5t100.5 185.5t167.5 128t236 48q150 0 233.5 -58.5t83.5 -169.5q0 -100 -55.5 -162.5t-142.5 -98.5t-193.5 -52t-208.5 -22v-23q0 -74 43 -110.5t139 -36.5q92 0 169 21.5t134 49.5v-153q-29 -16 -71.5 -31.5t-93 -30t-104.5 -22.5t-107 -8 q-78 0 -143.5 17t-115 56t-77 100.5t-27.5 149.5zM311 467q68 4 129.5 13t107.5 27.5t73.5 47.5t27.5 76q0 45 -29.5 69.5t-76.5 24.5q-55 0 -94 -21.5t-67 -57.5t-45.5 -83t-25.5 -96zM457 999l268 299h281l-316 -299h-233z" />
<glyph unicode="&#xea;" horiz-adv-x="919" d="M45 303q0 117 33 222.5t100.5 185.5t167.5 128t236 48q150 0 233.5 -58.5t83.5 -169.5q0 -100 -55.5 -162.5t-142.5 -98.5t-193.5 -52t-208.5 -22v-23q0 -74 43 -110.5t139 -36.5q92 0 169 21.5t134 49.5v-153q-29 -16 -71.5 -31.5t-93 -30t-104.5 -22.5t-107 -8 q-78 0 -143.5 17t-115 56t-77 100.5t-27.5 149.5zM262 999l267 299h305l115 -299h-207l-74 175h-20l-170 -175h-216zM311 467q68 4 129.5 13t107.5 27.5t73.5 47.5t27.5 76q0 45 -29.5 69.5t-76.5 24.5q-55 0 -94 -21.5t-67 -57.5t-45.5 -83t-25.5 -96z" />
<glyph unicode="&#xeb;" horiz-adv-x="919" d="M45 303q0 117 33 222.5t100.5 185.5t167.5 128t236 48q150 0 233.5 -58.5t83.5 -169.5q0 -100 -55.5 -162.5t-142.5 -98.5t-193.5 -52t-208.5 -22v-23q0 -74 43 -110.5t139 -36.5q92 0 169 21.5t134 49.5v-153q-29 -16 -71.5 -31.5t-93 -30t-104.5 -22.5t-107 -8 q-78 0 -143.5 17t-115 56t-77 100.5t-27.5 149.5zM311 467q68 4 129.5 13t107.5 27.5t73.5 47.5t27.5 76q0 45 -29.5 69.5t-76.5 24.5q-55 0 -94 -21.5t-67 -57.5t-45.5 -83t-25.5 -96zM314 1047l43 198h243l-43 -198h-243zM690 1047l41 198h244l-41 -198h-244z" />
<glyph unicode="&#xec;" horiz-adv-x="440" d="M6 0l184 866h250l-184 -866h-250zM113 1298h239l131 -299h-209z" />
<glyph unicode="&#xed;" horiz-adv-x="440" d="M6 0l184 866h250l-184 -866h-250zM195 999l239 299h262l-276 -299h-225z" />
<glyph unicode="&#xee;" horiz-adv-x="440" d="M6 0l184 866h250l-184 -866h-250zM14 1010l240 299h295l106 -299h-190l-74 176h-20l-160 -176h-197z" />
<glyph unicode="&#xef;" horiz-adv-x="440" d="M6 0l184 866h250l-184 -866h-250zM78 1049l41 196h215l-41 -196h-215zM403 1049l41 196h213l-41 -196h-213z" />
<glyph unicode="&#xf0;" horiz-adv-x="976" d="M45 305q0 111 27.5 215.5t87 184t156 128t231.5 48.5q51 0 89 -10.5t66 -24.5q-12 63 -38.5 109t-63.5 79l-352 -147l-35 119l250 106q-53 16 -111.5 27.5t-122.5 21.5l66 164q129 -14 225 -44t168 -75l273 117l38 -119l-200 -86q45 -47 73.5 -98t45 -104.5t23.5 -106.5 t7 -104q0 -207 -38 -346.5t-109.5 -224.5t-174 -122t-229.5 -37q-188 0 -270 89.5t-82 240.5zM303 330q0 -78 29.5 -131.5t101.5 -53.5q125 0 196.5 130.5t80.5 388.5q-29 23 -66 37t-88 14q-49 0 -95 -22.5t-82 -68.5t-56.5 -120t-20.5 -174z" />
<glyph unicode="&#xf1;" horiz-adv-x="937" d="M6 0l113 526l51 340h201v-98q63 55 141 87t152 32q125 0 180 -53.5t55 -155.5q0 -27 -4 -55.5t-10 -61.5l-119 -561h-252l115 530q4 23 8 45.5t4 45.5q0 35 -15.5 58t-62.5 23q-92 0 -178 -96l-129 -606h-250zM228 1174q49 41 110.5 67.5t130.5 26.5q45 0 80 -10.5 t67 -22.5t62.5 -22.5t65.5 -10.5q47 0 87 16.5t75 41.5l61 -140q-49 -41 -110.5 -68.5t-131.5 -27.5q-45 0 -79.5 10t-66.5 23.5t-62.5 24t-65.5 10.5q-47 0 -86 -16.5t-76 -41.5z" />
<glyph unicode="&#xf2;" horiz-adv-x="974" d="M43 291q0 135 38 244.5t108.5 188.5t173 121t231.5 42q182 0 263 -86t81 -230q0 -135 -38 -244.5t-109.5 -186.5t-174 -118.5t-231.5 -41.5q-182 0 -262 83.5t-80 227.5zM299 307q0 -68 30 -114t93 -46q55 0 103 29t84 82t55.5 129t19.5 172q0 66 -30.5 114t-96.5 48 q-55 0 -102 -28.5t-82 -83t-54.5 -131.5t-19.5 -171zM323 1298h271l147 -299h-219z" />
<glyph unicode="&#xf3;" horiz-adv-x="974" d="M43 291q0 135 38 244.5t108.5 188.5t173 121t231.5 42q182 0 263 -86t81 -230q0 -135 -38 -244.5t-109.5 -186.5t-174 -118.5t-231.5 -41.5q-182 0 -262 83.5t-80 227.5zM299 307q0 -68 30 -114t93 -46q55 0 103 29t84 82t55.5 129t19.5 172q0 66 -30.5 114t-96.5 48 q-55 0 -102 -28.5t-82 -83t-54.5 -131.5t-19.5 -171zM488 999l268 299h281l-316 -299h-233z" />
<glyph unicode="&#xf4;" horiz-adv-x="974" d="M43 291q0 135 38 244.5t108.5 188.5t173 121t231.5 42q182 0 263 -86t81 -230q0 -135 -38 -244.5t-109.5 -186.5t-174 -118.5t-231.5 -41.5q-182 0 -262 83.5t-80 227.5zM276 999l267 299h305l115 -299h-207l-74 175h-20l-170 -175h-216zM299 307q0 -68 30 -114t93 -46 q55 0 103 29t84 82t55.5 129t19.5 172q0 66 -30.5 114t-96.5 48q-55 0 -102 -28.5t-82 -83t-54.5 -131.5t-19.5 -171z" />
<glyph unicode="&#xf5;" horiz-adv-x="974" d="M43 291q0 135 38 244.5t108.5 188.5t173 121t231.5 42q182 0 263 -86t81 -230q0 -135 -38 -244.5t-109.5 -186.5t-174 -118.5t-231.5 -41.5q-182 0 -262 83.5t-80 227.5zM252 1174q49 41 110.5 67.5t130.5 26.5q45 0 80 -10.5t67 -22.5t62.5 -22.5t65.5 -10.5 q47 0 87 16.5t75 41.5l61 -140q-49 -41 -110.5 -68.5t-131.5 -27.5q-45 0 -79.5 10t-66.5 23.5t-62.5 24t-65.5 10.5q-47 0 -86 -16.5t-76 -41.5zM299 307q0 -68 30 -114t93 -46q55 0 103 29t84 82t55.5 129t19.5 172q0 66 -30.5 114t-96.5 48q-55 0 -102 -28.5t-82 -83 t-54.5 -131.5t-19.5 -171z" />
<glyph unicode="&#xf6;" horiz-adv-x="974" d="M43 291q0 135 38 244.5t108.5 188.5t173 121t231.5 42q182 0 263 -86t81 -230q0 -135 -38 -244.5t-109.5 -186.5t-174 -118.5t-231.5 -41.5q-182 0 -262 83.5t-80 227.5zM299 307q0 -68 30 -114t93 -46q55 0 103 29t84 82t55.5 129t19.5 172q0 66 -30.5 114t-96.5 48 q-55 0 -102 -28.5t-82 -83t-54.5 -131.5t-19.5 -171zM316 1047l43 198h243l-43 -198h-243zM692 1047l41 198h244l-41 -198h-244z" />
<glyph unicode="&#xf7;" d="M127 403l41 197h795l-41 -197h-795zM328 61l49 232h248l-50 -232h-247zM465 711l51 233h248l-49 -233h-250z" />
<glyph unicode="&#xf8;" horiz-adv-x="983" d="M-61 23l129 122q-23 59 -23 146q0 135 32 245.5t99.5 189.5t175 121t258.5 42q109 0 183 -35l127 123l133 -135l-131 -127q12 -31 17 -67t5 -77q0 -135 -31.5 -245.5t-100.5 -188.5t-176.5 -120t-256.5 -42q-57 0 -102.5 8.5t-79.5 24.5l-125 -121zM289 352l358 350 q-10 12 -33.5 19.5t-48.5 7.5q-51 0 -101 -21.5t-89 -65.5t-62.5 -111.5t-23.5 -159.5v-19zM342 162q10 -12 33.5 -19.5t48.5 -7.5q51 0 101 21.5t89 65.5t62.5 112.5t23.5 161.5v18z" />
<glyph unicode="&#xf9;" horiz-adv-x="940" d="M47 188q0 27 5 60t9 57l119 561h252l-115 -530q-4 -23 -8 -47.5t-4 -44.5q0 -35 15.5 -57.5t62.5 -22.5q92 0 176 96l131 606h250l-113 -526l-51 -340h-201v98q-66 -57 -143.5 -87.5t-148.5 -30.5q-125 0 -180.5 53t-55.5 155zM282 1298h271l147 -299h-219z" />
<glyph unicode="&#xfa;" horiz-adv-x="940" d="M47 188q0 27 5 60t9 57l119 561h252l-115 -530q-4 -23 -8 -47.5t-4 -44.5q0 -35 15.5 -57.5t62.5 -22.5q92 0 176 96l131 606h250l-113 -526l-51 -340h-201v98q-66 -57 -143.5 -87.5t-148.5 -30.5q-125 0 -180.5 53t-55.5 155zM471 999l268 299h281l-316 -299h-233z" />
<glyph unicode="&#xfb;" horiz-adv-x="940" d="M47 188q0 27 5 60t9 57l119 561h252l-115 -530q-4 -23 -8 -47.5t-4 -44.5q0 -35 15.5 -57.5t62.5 -22.5q92 0 176 96l131 606h250l-113 -526l-51 -340h-201v98q-66 -57 -143.5 -87.5t-148.5 -30.5q-125 0 -180.5 53t-55.5 155zM249 999l267 299h305l115 -299h-207 l-74 175h-20l-170 -175h-216z" />
<glyph unicode="&#xfc;" horiz-adv-x="940" d="M47 188q0 27 5 60t9 57l119 561h252l-115 -530q-4 -23 -8 -47.5t-4 -44.5q0 -35 15.5 -57.5t62.5 -22.5q92 0 176 96l131 606h250l-113 -526l-51 -340h-201v98q-66 -57 -143.5 -87.5t-148.5 -30.5q-125 0 -180.5 53t-55.5 155zM293 1047l43 198h243l-43 -198h-243z M669 1047l41 198h244l-41 -198h-244z" />
<glyph unicode="&#xfd;" horiz-adv-x="872" d="M-135 -422l59 164q18 -4 37 -4h33q61 0 97 19.5t59 43.5q27 29 59.5 86.5t62.5 112.5l-182 866h248l90 -594h18l275 594h246l-502 -940q-43 -82 -88 -148.5t-100.5 -114.5t-125 -73.5t-161.5 -25.5q-31 0 -63.5 2t-61.5 12zM463 999l268 299h281l-316 -299h-233z" />
<glyph unicode="&#xfe;" horiz-adv-x="952" d="M-88 -420l182 846l254 10l-174 -825zM2 0l277 1282l256 33l-105 -484q88 55 209 56q125 0 198.5 -84t73.5 -225q0 -113 -31.5 -220.5t-96 -190.5t-162 -133t-228.5 -50q-49 0 -98 8t-94 31l-13 -23h-186zM283 154q23 -10 42 -12.5t37 -2.5q80 0 137.5 37t92.5 95.5 t51 132t16 149.5q0 74 -34 122t-97 48q-74 0 -131 -41z" />
<glyph unicode="&#xff;" horiz-adv-x="872" d="M-135 -422l59 164q18 -4 37 -4h33q61 0 97 19.5t59 43.5q27 29 59.5 86.5t62.5 112.5l-182 866h248l90 -594h18l275 594h246l-502 -940q-43 -82 -88 -148.5t-100.5 -114.5t-125 -73.5t-161.5 -25.5q-31 0 -63.5 2t-61.5 12zM261 1047l43 198h243l-43 -198h-243zM637 1047 l41 198h244l-41 -198h-244z" />
<glyph unicode="&#x152;" horiz-adv-x="1843" d="M86 449q0 186 50 337.5t142.5 258t223.5 164t295 57.5q217 0 321 -111l21 90h768l-43 -201h-533l-65 -305h516l-41 -196h-516l-74 -342h555l-43 -201h-789l15 70q-72 -43 -154 -66.5t-178 -23.5q-231 0 -351 117.5t-120 351.5zM352 463q0 -141 61.5 -215t172.5 -74 q82 0 156.5 42t132 122t90 193.5t32.5 254.5q0 143 -61 216t-172 73q-84 0 -158 -43t-131 -122t-90 -192.5t-33 -254.5z" />
<glyph unicode="&#x153;" horiz-adv-x="1536" d="M43 291q0 135 38 244.5t108.5 188.5t173 121t231.5 42q106 0 175 -31t108 -84q61 53 141 84t180 31q150 0 234 -58.5t84 -169.5q0 -100 -55.5 -162.5t-142.5 -98.5t-193.5 -52t-209.5 -22v-23q0 -74 43 -110.5t140 -36.5q92 0 168.5 21.5t134.5 49.5v-153 q-29 -16 -72 -31.5t-93 -30t-104.5 -22.5t-107.5 -8q-98 0 -175 27.5t-122 92.5q-66 -57 -152 -88.5t-190 -31.5q-182 0 -262 83.5t-80 227.5zM299 307q0 -68 29.5 -114t93.5 -46q55 0 103 29t84 82t55.5 129t19.5 172q0 66 -30.5 114t-96.5 48q-55 0 -102 -28.5t-82 -83 t-54.5 -131.5t-19.5 -171zM928 467q68 4 129 13t107 27.5t74 47.5t28 76q0 45 -30 69.5t-77 24.5q-55 0 -94 -21.5t-66.5 -57.5t-45 -83t-25.5 -96z" />
<glyph unicode="&#x178;" horiz-adv-x="1095" d="M156 1245h270l176 -530h16l377 530h269l-572 -756l-106 -489h-254l125 489q-37 80 -76 179.5t-77 203t-74.5 200.5t-73.5 173zM443 1397l43 198h243l-43 -198h-243zM819 1397l41 198h244l-41 -198h-244z" />
<glyph unicode="&#x2c6;" horiz-adv-x="997" d="M276 999l267 299h305l115 -299h-207l-74 175h-20l-170 -175h-216z" />
<glyph unicode="&#x2dc;" horiz-adv-x="999" d="M244 1174q49 41 110.5 67.5t130.5 26.5q45 0 80 -10.5t67 -22.5t62.5 -22.5t65.5 -10.5q47 0 87 16.5t75 41.5l61 -140q-49 -41 -110.5 -68.5t-131.5 -27.5q-45 0 -79.5 10t-66.5 23.5t-62.5 24t-65.5 10.5q-47 0 -86 -16.5t-76 -41.5z" />
<glyph unicode="&#x2000;" horiz-adv-x="877" />
<glyph unicode="&#x2001;" horiz-adv-x="1755" />
<glyph unicode="&#x2002;" horiz-adv-x="877" />
<glyph unicode="&#x2003;" horiz-adv-x="1755" />
<glyph unicode="&#x2004;" horiz-adv-x="585" />
<glyph unicode="&#x2005;" horiz-adv-x="438" />
<glyph unicode="&#x2006;" horiz-adv-x="292" />
<glyph unicode="&#x2007;" horiz-adv-x="292" />
<glyph unicode="&#x2008;" horiz-adv-x="219" />
<glyph unicode="&#x2009;" horiz-adv-x="351" />
<glyph unicode="&#x200a;" horiz-adv-x="97" />
<glyph unicode="&#x2010;" horiz-adv-x="671" d="M70 338l45 211h499l-45 -211h-499z" />
<glyph unicode="&#x2011;" horiz-adv-x="671" d="M70 338l45 211h499l-45 -211h-499z" />
<glyph unicode="&#x2012;" horiz-adv-x="671" d="M70 338l45 211h499l-45 -211h-499z" />
<glyph unicode="&#x2013;" horiz-adv-x="995" d="M78 362l41 197h817l-41 -197h-817z" />
<glyph unicode="&#x2014;" horiz-adv-x="1507" d="M-23 362l41 197h1530l-41 -197h-1530z" />
<glyph unicode="&#x2018;" horiz-adv-x="493" d="M177 779q20 94 46.5 168.5t62.5 138t81 119t100 110.5l127 -98q-49 -57 -79.5 -110.5t-52 -105.5t-35 -106.5t-25.5 -115.5h-225z" />
<glyph unicode="&#x2019;" horiz-adv-x="495" d="M142 860q49 57 79.5 110.5t52 105.5t35 106.5t25.5 115.5h225q-20 -94 -46.5 -168.5t-62.5 -138t-81 -119t-100 -110.5z" />
<glyph unicode="&#x201a;" horiz-adv-x="483" d="M-98 -207q49 57 79.5 110.5t52 105.5t35 106.5t25.5 115.5h225q-20 -94 -46.5 -168.5t-62.5 -138t-81 -119t-100 -110.5z" />
<glyph unicode="&#x201c;" horiz-adv-x="872" d="M177 779q20 94 46.5 168.5t62.5 138t81 119t100 110.5l127 -98q-49 -57 -79.5 -110.5t-52 -105.5t-35 -106.5t-25.5 -115.5h-225zM555 779q20 94 46.5 168.5t62.5 138t81 119t100 110.5l127 -98q-49 -57 -79.5 -110.5t-52 -105.5t-35 -106.5t-25.5 -115.5h-225z" />
<glyph unicode="&#x201d;" horiz-adv-x="872" d="M142 860q49 57 79.5 110.5t52 105.5t35 106.5t25.5 115.5h225q-20 -94 -46.5 -168.5t-62.5 -138t-81 -119t-100 -110.5zM518 860q49 57 79.5 110.5t52 105.5t35 106.5t25.5 115.5h225q-20 -94 -46.5 -168.5t-62.5 -138t-81 -119t-100 -110.5z" />
<glyph unicode="&#x201e;" horiz-adv-x="872" d="M-65 -207q49 57 79.5 110.5t52 105.5t35 106.5t25.5 115.5h225q-20 -94 -46.5 -168.5t-62.5 -138t-81 -119t-100 -110.5zM312 -207q49 57 79.5 110.5t52 105.5t35 106.5t25.5 115.5h225q-20 -94 -46.5 -168.5t-62.5 -138t-81 -119t-100 -110.5z" />
<glyph unicode="&#x2022;" horiz-adv-x="614" d="M61 442q0 47 20.5 94.5t56.5 86.5t85 62.5t109 23.5q84 0 131 -51.5t47 -129.5q0 -49 -21.5 -96t-58.5 -85t-87 -60.5t-105 -22.5q-78 0 -127.5 48t-49.5 130z" />
<glyph unicode="&#x2026;" horiz-adv-x="1390" d="M27 0l49 236h252l-52 -236h-249zM483 0l49 236h252l-51 -236h-250zM940 0l49 236h252l-51 -236h-250z" />
<glyph unicode="&#x202f;" horiz-adv-x="351" />
<glyph unicode="&#x2039;" horiz-adv-x="575" d="M33 432l383 373l137 -129l-246 -242l142 -235l-193 -138z" />
<glyph unicode="&#x203a;" horiz-adv-x="575" d="M35 190l246 242l-142 235l193 138l223 -371l-383 -373z" />
<glyph unicode="&#x205f;" horiz-adv-x="438" />
<glyph unicode="&#x20ac;" horiz-adv-x="1144" d="M10 412l78 139h115q4 66 12 123h-149l79 139h105q70 215 234.5 334t428.5 119q86 0 180.5 -24.5t159.5 -78.5l-116 -202q-33 47 -96.5 75.5t-149.5 28.5q-139 0 -227.5 -71.5t-135.5 -180.5h533l-82 -139h-494q-6 -31 -10 -61.5t-6 -61.5h436l-80 -139h-354 q16 -109 84 -164t176 -55q162 0 285 51l-49 -219q-147 -45 -301 -45q-111 0 -195 31.5t-141.5 89t-89 136t-37.5 175.5h-193z" />
<glyph unicode="&#x2122;" horiz-adv-x="1445" d="M168 1108l29 137h546l-28 -137h-178l-107 -504h-188l106 504h-180zM672 604l135 641h276l-2 -151l-8 -258h19l102 258l57 151h281l-137 -641h-168l47 219l69 271h-22l-100 -258l-93 -205h-180l-4 211l8 252h-22l-45 -271l-47 -219h-166z" />
<glyph unicode="&#x25fc;" horiz-adv-x="870" d="M0 0v870h870v-870h-870z" />
</font>
</defs>
</svg>
